<?xml version="1.0" encoding="UTF-8"?>
<svg width="22px" height="22px" viewBox="0 0 22 22" version="1.1" xmlns="http://www.w3.org/2000/svg" xmlns:xlink="http://www.w3.org/1999/xlink">
    <!-- Generator: Sketch 41 (35326) - http://www.bohemiancoding.com/sketch -->
    <title>github</title>
    <desc>Created with Sketch.</desc>
    <defs></defs>
    <g id="Page-1" stroke="none" stroke-width="1" fill="none" fill-rule="evenodd">
        <g id="Desktop-HD" transform="translate(-660.000000, -286.000000)" fill="#7A8189">
            <g id="main" transform="translate(451.000000, -137.000000)">
                <g id="Group" transform="translate(74.000000, 248.000000)">
                    <g id="social" transform="translate(135.000000, 175.000000)">
                        <path d="M10.9993125,0 C4.92525,0 0,5.04927715 0,11.2792802 C0,16.2615908 3.1515,20.4889417 7.5233125,21.9805333 C8.0733125,22.0841552 8.2740625,21.7359292 8.2740625,21.437047 C8.2740625,21.1691808 8.2644375,20.4600404 8.2589375,19.5189843 C5.198875,20.2006332 4.5533125,18.0069503 4.5533125,18.0069503 C4.0535,16.7042748 3.3323125,16.3574587 3.3323125,16.3574587 C2.333375,15.6574821 3.4079375,15.6715803 3.4079375,15.6715803 C4.511375,15.7512352 5.0923125,16.8339785 5.0923125,16.8339785 C6.0740625,18.5574857 7.667,18.0598186 8.294,17.7708051 C8.3936875,17.0419272 8.6783125,16.544965 8.9925,16.2630006 C6.5498125,15.9782166 3.982,15.0110787 3.982,10.6892697 C3.982,9.45779025 4.4103125,8.45117741 5.1143125,7.66238206 C5.000875,7.37689312 4.6234375,6.23070791 5.2215625,4.67778908 C5.2215625,4.67778908 6.1455625,4.37467737 8.2465625,5.83384304 C9.1245,5.58359966 10.065,5.45883042 11.0006875,5.45389604 C11.935,5.45883042 12.8761875,5.58359966 13.7548125,5.83384304 C15.8544375,4.37467737 16.776375,4.67778908 16.776375,4.67778908 C17.3765625,6.23070791 16.999125,7.37689312 16.8856875,7.66238206 C17.5910625,8.45117741 18.016625,9.45779025 18.016625,10.6892697 C18.016625,15.0216524 15.4446875,15.9753969 12.9944375,16.2545417 C13.3890625,16.6027677 13.7410625,17.2907608 13.7410625,18.3431928 C13.7410625,19.8509973 13.7273125,21.0669687 13.7273125,21.437047 C13.7273125,21.7387489 13.9253125,22.0897945 14.4835625,21.9791235 C18.85125,20.4847123 22,16.2601809 22,11.2792802 C22,5.04927715 17.07475,0 10.9993125,0" id="github"></path>
                    </g>
                </g>
            </g>
        </g>
    </g>
</svg>