<?xml version="1.0" encoding="UTF-8"?>
<svg width="22px" height="22px" viewBox="0 0 22 22" version="1.1" xmlns="http://www.w3.org/2000/svg" xmlns:xlink="http://www.w3.org/1999/xlink">
    <!-- Generator: Sketch 41 (35326) - http://www.bohemiancoding.com/sketch -->
    <title>insta</title>
    <desc>Created with Sketch.</desc>
    <defs></defs>
    <g id="Page-1" stroke="none" stroke-width="1" fill="none" fill-rule="evenodd">
        <g id="Desktop-HD" transform="translate(-712.000000, -286.000000)" fill="#7A8189">
            <g id="main" transform="translate(451.000000, -137.000000)">
                <g id="Group" transform="translate(74.000000, 248.000000)">
                    <g id="social" transform="translate(135.000000, 175.000000)">
                        <path d="M71.25,19.9375 L54.75,19.9375 C54.3705,19.9375 54.0625,19.6295 54.0625,19.25 L54.0625,8.9375 L56.8125,8.9375 C56.4543125,9.453125 56.3333125,10.4149375 56.3333125,11.0254375 C56.3333125,14.707 59.335625,17.7024375 63.0254375,17.7024375 C66.7159375,17.7024375 69.71825,14.707 69.71825,11.0254375 C69.71825,10.4149375 69.631625,9.4675625 69.1875,8.9375 L71.9375,8.9375 L71.9375,19.25 C71.9375,19.6295 71.6295,19.9375 71.25,19.9375 M63.0254375,6.804875 C65.36225,6.804875 67.2563125,8.6948125 67.2563125,11.0254375 C67.2563125,13.35675 65.36225,15.2466875 63.0254375,15.2466875 C60.6893125,15.2466875 58.79525,13.35675 58.79525,11.0254375 C58.79525,8.6948125 60.6893125,6.804875 63.0254375,6.804875 M68.5,2.75 L70.5625,2.75 C70.942,2.75 71.25,3.058 71.25,3.4375 L71.25,5.5 C71.25,5.8795 70.942,6.1875 70.5625,6.1875 L68.5,6.1875 C68.1205,6.1875 67.8125,5.8795 67.8125,5.5 L67.8125,3.4375 C67.8125,3.058 68.1205,2.75 68.5,2.75 M71.38475,0 L54.61525,0 C53.1708125,0 52,1.1680625 52,2.6090625 L52,19.3909375 C52,20.8319375 53.1708125,22 54.61525,22 L71.38475,22 C72.8291875,22 74,20.8319375 74,19.3909375 L74,2.6090625 C74,1.1680625 72.8291875,0 71.38475,0" id="insta"></path>
                    </g>
                </g>
            </g>
        </g>
    </g>
</svg>