<?xml version="1.0" encoding="UTF-8"?>
<svg width="54px" height="54px" viewBox="0 0 54 54" version="1.1" xmlns="http://www.w3.org/2000/svg" xmlns:xlink="http://www.w3.org/1999/xlink">
    <!-- Generator: Sketch 41 (35326) - http://www.bohemiancoding.com/sketch -->
    <title>mark</title>
    <desc>Created with Sketch.</desc>
    <defs>
        <path d="M5.54785156,0.157226562 L6.98535156,0.134765625 C11.2978731,0.0449214258 13.7011694,0 14.1953125,0 C20.1849258,0 24.665838,1.35512968 27.6381836,4.06542969 C30.6105292,6.7757297 32.0966797,10.7288152 32.0966797,15.9248047 C32.0966797,19.2640141 31.37045,22.1876502 29.9179688,24.6958008 C28.4654875,27.2039513 26.3616674,29.1430596 23.6064453,30.5131836 C20.8512232,31.8833076 17.579446,32.5683594 13.7910156,32.5683594 C13.3417946,32.5683594 12.2898846,32.5458987 10.6352539,32.5009766 C8.98062324,32.4560545 7.79394891,32.4335938 7.07519531,32.4335938 C3.91567431,32.4335938 1.55729945,32.4785152 0,32.5683594 L0,31.6474609 C1.01823426,31.6025388 1.75943778,31.4827484 2.22363281,31.2880859 C2.68782784,31.0934235 3.00602127,30.7340521 3.17822266,30.2099609 C3.35042404,29.6858698 3.43652344,28.8473365 3.43652344,27.6943359 L3.43652344,4.87402344 C3.43652344,3.72102288 3.35042404,2.8824896 3.17822266,2.35839844 C3.00602127,1.83430728 2.68782784,1.47493587 2.22363281,1.28027344 C1.75943778,1.08561101 1.01823426,0.965820537 0,0.920898438 L0,0 C1.96159835,0.104818232 3.81086371,0.157226562 5.54785156,0.157226562 L5.54785156,0.157226562 Z M11.0283203,30.2661133 C11.2080087,30.8126655 11.5374325,31.1944976 12.0166016,31.4116211 C12.4957706,31.6287446 13.2220003,31.7373047 14.1953125,31.7373047 C16.7259241,31.7373047 18.7436448,31.1420958 20.2485352,29.9516602 C21.7534255,28.7612245 22.8315397,27.0242627 23.4829102,24.7407227 C24.1342806,22.4571826 24.4599609,19.5784679 24.4599609,16.1044922 C24.4599609,12.6155425 24.1118199,9.75180156 23.4155273,7.51318359 C22.7192348,5.27456563 21.6149164,3.60124252 20.1025391,2.49316406 C18.5901617,1.38508561 16.6061321,0.831054688 14.1503906,0.831054688 C13.1920525,0.831054688 12.4770531,0.9396148 12.0053711,1.15673828 C11.533689,1.37386176 11.2080087,1.75943733 11.0283203,2.31347656 C10.8486319,2.86751579 10.7587891,3.69107526 10.7587891,4.78417969 L10.7587891,27.7841797 C10.7587891,28.8922581 10.8486319,29.7195611 11.0283203,30.2661133 L11.0283203,30.2661133 Z" id="path-1"></path>
        <polygon id="path-3" points="0 0 54 0 54 54"></polygon>
        <filter x="-50%" y="-50%" width="200%" height="200%" filterUnits="objectBoundingBox" id="filter-4">
            <feOffset dx="0" dy="-4" in="SourceAlpha" result="shadowOffsetInner1"></feOffset>
            <feComposite in="shadowOffsetInner1" in2="SourceAlpha" operator="arithmetic" k2="-1" k3="1" result="shadowInnerInner1"></feComposite>
            <feColorMatrix values="0 0 0 0 1   0 0 0 0 0.992156863   0 0 0 0 0.329411765  0 0 0 1 0" type="matrix" in="shadowInnerInner1"></feColorMatrix>
        </filter>
    </defs>
    <g id="Page-1" stroke="none" stroke-width="1" fill="none" fill-rule="evenodd">
        <g id="Desktop-HD" transform="translate(-696.000000, -111.000000)">
            <g id="main" transform="translate(451.000000, -137.000000)">
                <g id="Group" transform="translate(74.000000, 248.000000)">
                    <g id="mark" transform="translate(171.000000, 0.000000)">
                        <polygon id="background" fill="#FF3B3B" points="0 0 54 0 54 54"></polygon>
                        <g id="D" transform="translate(12.000000, 10.000000)">
                            <mask id="mask-2" fill="white">
                                <use xlink:href="#path-1"></use>
                            </mask>
                            <use id="Mask" fill="#282B2F" xlink:href="#path-1"></use>
                            <polygon id="Rectangle-2" fill="#FDFDFD" mask="url(#mask-2)" points="-12 -10 42 -10 42 44"></polygon>
                        </g>
                        <g id="shadow" fill-opacity="1" fill="black">
                            <use filter="url(#filter-4)" xlink:href="#path-3"></use>
                        </g>
                    </g>
                </g>
            </g>
        </g>
    </g>
</svg>