<?xml version="1.0" encoding="UTF-8"?>
<svg width="22px" height="18px" viewBox="0 0 22 18" version="1.1" xmlns="http://www.w3.org/2000/svg" xmlns:xlink="http://www.w3.org/1999/xlink">
    <!-- Generator: Sketch 41 (35326) - http://www.bohemiancoding.com/sketch -->
    <title>twitter</title>
    <desc>Created with Sketch.</desc>
    <defs></defs>
    <g id="Page-1" stroke="none" stroke-width="1" fill="none" fill-rule="evenodd">
        <g id="Desktop-HD" transform="translate(-764.000000, -288.000000)" fill="#7A8189">
            <g id="main" transform="translate(451.000000, -137.000000)">
                <g id="Group" transform="translate(74.000000, 248.000000)">
                    <g id="social" transform="translate(135.000000, 175.000000)">
                        <path d="M126,4.13051336 C125.190812,4.49182849 124.320437,4.73616612 123.407438,4.84622188 C124.339687,4.28348395 125.055375,3.39334743 125.39225,2.3322438 C124.5205,2.85275908 123.553875,3.23068641 122.526062,3.43487791 C121.702438,2.55166314 120.529562,2 119.231562,2 C116.738687,2 114.718125,4.0343011 114.718125,6.54412613 C114.718125,6.89990386 114.758,7.24668333 114.835,7.5796193 C111.083313,7.38996347 107.757875,5.58061911 105.53175,2.83130167 C105.143312,3.50271102 104.920563,4.28348395 104.920563,5.11616997 C104.920563,6.69225149 105.717375,8.0835224 106.928062,8.89821188 C106.188312,8.87467795 105.492562,8.67048644 104.884125,8.32993655 C104.883437,8.34931744 104.883437,8.36800615 104.883437,8.38738704 C104.883437,10.5891944 106.43925,12.4255336 108.5045,12.8429148 C108.125687,12.946741 107.726937,13.002115 107.315125,13.002115 C107.024313,13.002115 106.74175,12.9737358 106.466063,12.9211306 C107.040125,14.7263219 108.707313,16.0400692 110.6825,16.0767545 C109.137687,17.2956739 107.191375,18.021765 105.076625,18.021765 C104.71225,18.021765 104.353375,18.0003076 104,17.9587772 C105.997187,19.2476062 108.36975,20 110.919,20 C119.22125,20 123.760813,13.0754855 123.760813,7.07087099 C123.760813,6.87360123 123.756687,6.67771582 123.74775,6.48252259 C124.629812,5.8422611 125.395,5.04210729 126,4.13051336" id="twitter"></path>
                    </g>
                </g>
            </g>
        </g>
    </g>
</svg>