<?xml version="1.0" encoding="UTF-8"?>
<svg width="15px" height="15px" viewBox="0 0 15 15" version="1.1" xmlns="http://www.w3.org/2000/svg" xmlns:xlink="http://www.w3.org/1999/xlink">
    <!-- Generator: Sketch 41 (35326) - http://www.bohemiancoding.com/sketch -->
    <title>dashed-border</title>
    <desc>Created with Sketch.</desc>
    <defs></defs>
    <g id="Page-1" stroke="none" stroke-width="1" fill="none" fill-rule="evenodd">
        <g id="dashed-border" fill="#EDEDED">
            <path d="M2,5 L2,2 L5,2 L5,0 L10,0 L10,2 L13,2 L13,5 L15,5 L15,10 L13,10 L13,13 L10,13 L10,15 L5,15 L5,13 L2,13 L2,10 L0,10 L3.061617e-16,5 L2,5 Z M0,1 L0,0 L15,0 L15,1 L15,15 L14,15 L1,15 L-1.33226763e-15,15 L1.15463195e-15,1 Z" id="Combined-Shape"></path>
        </g>
    </g>
</svg>